<?xml version="1.0" standalone="no"?>
<!DOCTYPE svg PUBLIC "-//W3C//DTD SVG 20010904//EN"
 "http://www.w3.org/TR/2001/REC-SVG-20010904/DTD/svg10.dtd">
<svg version="1.0" xmlns="http://www.w3.org/2000/svg"
 width="1876.000000pt" height="757.000000pt" viewBox="0 0 1876.000000 757.000000"
 preserveAspectRatio="xMidYMid meet">

<g transform="translate(0.000000,757.000000) scale(0.100000,-0.100000)"
fill="#000000" stroke="none">
<path d="M2680 5020 l0 -1560 6650 0 6650 0 0 1560 0 1560 -6650 0 -6650 0 0
-1560z m1310 1166 c266 -43 454 -130 604 -281 155 -155 247 -354 287 -620 17
-117 14 -409 -5 -530 -88 -535 -398 -834 -943 -910 -79 -11 -202 -15 -475 -15
l-368 0 0 1191 0 1192 403 -6 c289 -4 429 -10 497 -21z m2656 -1166 c250 -652
454 -1186 454 -1187 0 -2 -39 -3 -87 -3 l-88 0 -161 418 -160 417 -499 0 -499
0 -103 -260 c-56 -143 -130 -331 -164 -417 l-61 -158 -84 0 c-46 0 -84 2 -84
4 0 2 187 480 416 1063 229 582 438 1116 466 1186 l50 128 75 -3 76 -3 453
-1185z m1664 140 c385 -577 701 -1050 703 -1050 1 0 0 472 -1 1050 l-4 1050
81 0 81 0 0 -1190 0 -1190 -87 0 -88 0 -700 1048 -700 1048 4 -1048 3 -1048
-81 0 -81 0 0 1190 0 1190 85 0 85 0 700 -1050z m1700 -140 l0 -1190 -85 0
-85 0 0 1190 0 1190 85 0 85 0 0 -1190z m1970 1110 l0 -80 -565 0 -565 0 0
-445 0 -445 535 0 535 0 0 -75 0 -75 -535 0 -535 0 0 -515 0 -515 565 0 565 0
0 -75 0 -75 -650 0 -650 0 0 1190 0 1190 650 0 650 0 0 -80z m710 -1035 l0
-1115 565 0 565 0 0 -75 0 -75 -650 0 -650 0 0 1190 0 1190 85 0 85 0 0 -1115z
m2840 1035 l0 -80 -565 0 -565 0 0 -445 0 -445 535 0 535 0 0 -75 0 -75 -535
0 -535 0 0 -515 0 -515 565 0 565 0 0 -75 0 -75 -650 0 -650 0 0 1190 0 1190
650 0 650 0 0 -80z"/>
<path d="M3260 5016 l0 -1046 188 0 c493 0 743 58 942 217 146 116 238 272
291 490 24 99 30 153 35 295 10 266 -24 458 -114 638 -78 156 -225 291 -393
358 -160 65 -283 82 -646 89 l-303 6 0 -1047z"/>
<path d="M6106 6000 c-2 -8 -21 -64 -41 -125 -20 -60 -118 -321 -217 -578 -99
-257 -178 -470 -176 -473 3 -2 201 -3 440 -2 l435 3 -139 375 c-77 206 -175
474 -218 595 -43 121 -81 213 -84 205z"/>
<path d="M3360 3216 c-90 -24 -164 -88 -204 -175 -16 -36 -20 -67 -21 -141 0
-112 21 -169 87 -237 64 -65 124 -87 238 -87 52 0 114 5 138 12 39 12 42 15
42 48 0 30 -3 35 -17 29 -84 -32 -194 -30 -261 4 -123 63 -167 239 -95 374 65
119 189 147 351 80 10 -4 12 6 10 38 -3 44 -3 44 -53 56 -66 15 -159 15 -215
-1z"/>
<path d="M6895 3217 c-26 -6 -57 -28 -91 -61 -68 -69 -89 -129 -89 -256 0
-127 21 -187 89 -255 70 -70 148 -90 251 -64 51 13 127 74 152 123 26 50 43
126 43 196 0 120 -33 205 -105 268 -66 58 -153 75 -250 49z m149 -71 c43 -18
72 -60 91 -132 29 -111 11 -253 -40 -320 -44 -58 -141 -70 -203 -25 -16 11
-40 44 -53 73 -19 44 -23 70 -24 158 0 97 2 109 30 164 44 88 115 117 199 82z"/>
<path d="M4417 2923 c-64 -164 -119 -306 -123 -315 -5 -15 0 -18 34 -18 l41 0
29 78 30 77 143 0 143 0 29 -77 30 -78 49 0 c44 0 49 2 44 18 -4 9 -59 151
-123 315 l-116 297 -47 0 -47 0 -116 -297z m211 49 c29 -77 52 -142 52 -145 0
-4 -50 -7 -111 -7 -85 0 -110 3 -106 13 2 6 26 72 53 144 27 73 52 133 55 133
3 0 29 -62 57 -138z"/>
<path d="M5590 2906 l0 -316 50 0 50 0 0 120 0 120 60 0 c131 0 232 45 271
121 27 54 24 154 -7 196 -41 56 -83 68 -261 71 l-163 4 0 -316z m307 224 c44
-28 57 -108 26 -161 -24 -41 -76 -63 -160 -67 l-73 -4 0 127 0 127 93 -4 c54
-2 101 -10 114 -18z"/>
<path d="M7970 2905 l0 -315 45 0 45 0 0 130 0 130 48 -1 47 0 98 -130 98
-129 55 0 c42 0 53 3 48 13 -5 6 -52 70 -106 141 l-98 128 42 31 c24 17 50 40
60 51 24 30 39 104 28 150 -20 88 -88 116 -282 116 l-128 0 0 -315z m252 235
c21 -6 42 -19 48 -30 15 -29 12 -103 -6 -129 -24 -34 -91 -61 -151 -61 l-53 0
0 115 0 115 63 0 c34 0 79 -5 99 -10z"/>
<path d="M9217 2923 c-64 -164 -119 -306 -123 -315 -5 -15 0 -18 34 -18 l41 0
29 78 30 77 143 0 143 0 29 -77 30 -78 49 0 c44 0 49 2 44 18 -4 9 -59 151
-123 315 l-116 297 -47 0 -47 0 -116 -297z m211 49 c29 -77 52 -142 52 -145 0
-4 -50 -7 -111 -7 -85 0 -110 3 -106 13 2 6 26 72 53 144 27 73 52 133 55 133
3 0 29 -62 57 -138z"/>
<path d="M10390 2905 l0 -315 215 0 215 0 0 35 0 35 -170 0 -170 0 0 280 0
280 -45 0 -45 0 0 -315z"/>
<path d="M11590 2905 l0 -315 220 0 220 0 0 35 0 35 -175 0 -175 0 0 110 0
110 140 0 140 0 0 35 0 35 -140 0 -140 0 0 100 0 100 165 0 165 0 0 35 0 35
-210 0 -210 0 0 -315z"/>
<path d="M12690 3185 l0 -35 120 0 120 0 0 -280 0 -280 50 0 50 0 0 280 0 280
120 0 120 0 0 35 0 35 -290 0 -290 0 0 -35z"/>
<path d="M13890 3185 l0 -35 120 0 120 0 0 -280 0 -280 50 0 50 0 0 280 0 280
120 0 120 0 0 35 0 35 -290 0 -290 0 0 -35z"/>
<path d="M15170 3185 l0 -35 80 0 80 0 0 -245 0 -245 -80 0 -80 0 0 -35 0 -35
215 0 215 0 0 35 0 35 -85 0 -85 0 0 245 0 245 85 0 85 0 0 35 0 35 -215 0
-215 0 0 -35z"/>
</g>
</svg>
